<?xml version="1.0" encoding="utf-8"?>
<!-- Generator: Adobe Illustrator 15.0.0, SVG Export Plug-In . SVG Version: 6.00 Build 0)  -->
<!DOCTYPE svg PUBLIC "-//W3C//DTD SVG 1.1//EN" "http://www.w3.org/Graphics/SVG/1.1/DTD/svg11.dtd">
<svg version="1.1" id="Camada_1" xmlns="http://www.w3.org/2000/svg" xmlns:xlink="http://www.w3.org/1999/xlink" x="0px" y="0px"
	 width="24px" height="24px" viewBox="0 0 24 24" enable-background="new 0 0 24 24" xml:space="preserve">
<path fill-rule="evenodd" clip-rule="evenodd" fill="#C2CBDA" d="M12,18.068c-0.548,0-0.99-0.446-0.99-0.994
	c0-0.549,0.442-0.996,0.99-0.996s0.99,0.446,0.99,0.996C12.99,17.622,12.548,18.068,12,18.068z M12,21.481
	c-0.548,0-0.99-0.446-0.99-0.996s0.442-0.994,0.99-0.994s0.99,0.444,0.99,0.994S12.548,21.481,12,21.481z M20.734,15.591
	c-0.75-1.147-2.889-1.92-4.981-2.361c-1.051,0.778-2.347,1.239-3.748,1.239c-1.403,0-2.7-0.462-3.751-1.241
	c-2.094,0.438-4.238,1.214-4.988,2.362c-1.148,1.756,0,8.409,0,8.409h17.469C20.734,24,21.883,17.348,20.734,15.591z M12,12.868
	c2.608,0,4.731-2.131,4.731-4.752c0-0.61-0.114-1.188-0.324-1.73h-0.693h-0.928c0.312,0.501,0.489,1.097,0.489,1.73
	c0,1.814-1.468,3.291-3.275,3.291S8.725,9.929,8.725,8.116c0-0.635,0.179-1.229,0.489-1.73H8.275H7.593
	c-0.208,0.542-0.324,1.12-0.324,1.73C7.269,10.736,9.39,12.868,12,12.868z M15.733,0.737C15.733,0.322,15.392,0,14.974,0H9.043
	C8.629,0,8.297,0.322,8.297,0.737v4.564h7.437V0.737z"/>
</svg>
